<?xml version="1.0" standalone="no"?>
<!DOCTYPE svg PUBLIC "-//W3C//DTD SVG 20010904//EN"
 "http://www.w3.org/TR/2001/REC-SVG-20010904/DTD/svg10.dtd">
<svg version="1.0" xmlns="http://www.w3.org/2000/svg"
 width="128.000000pt" height="128.000000pt" viewBox="0 0 128.000000 128.000000"
 preserveAspectRatio="xMidYMid meet">

<g transform="translate(0.000000,128.000000) scale(0.100000,-0.100000)"
fill="#000000" stroke="none">
<path d="M605 1104 c-11 -2 -45 -9 -75 -15 -81 -17 -147 -54 -216 -123 -92
-92 -137 -199 -137 -326 0 -127 45 -234 137 -326 75 -75 143 -111 247 -130
150 -29 292 17 405 130 75 75 111 143 130 247 29 150 -17 292 -130 405 -34 34
-84 73 -111 86 -69 35 -201 62 -250 52z m198 -122 c77 -38 148 -111 185 -190
23 -49 27 -70 27 -152 0 -82 -4 -103 -27 -152 -37 -80 -107 -152 -187 -191
-60 -29 -74 -32 -161 -32 -82 0 -103 4 -152 27 -80 37 -152 107 -191 187 -29
60 -32 74 -32 161 0 85 3 101 29 155 36 72 92 135 154 171 73 43 119 54 209
51 67 -3 92 -9 146 -35z"/>
<path d="M705 690 c-82 -83 -154 -150 -158 -150 -5 0 -46 36 -90 80 l-81 81
-30 -31 -31 -30 115 -115 115 -115 185 185 185 185 -30 30 -30 30 -150 -150z"/>
</g>
</svg>
