<?xml version="1.0" standalone="no"?>
<!DOCTYPE svg PUBLIC "-//W3C//DTD SVG 20010904//EN"
 "http://www.w3.org/TR/2001/REC-SVG-20010904/DTD/svg10.dtd">
<svg version="1.0" xmlns="http://www.w3.org/2000/svg"
 width="128.000000pt" height="128.000000pt" viewBox="0 0 128.000000 128.000000"
 preserveAspectRatio="xMidYMid meet">

<g transform="translate(0.000000,128.000000) scale(0.100000,-0.100000)"
fill="#000000" stroke="none">
<path d="M517 1089 c-103 -24 -239 -134 -289 -234 -67 -132 -67 -296 -2 -426
32 -64 111 -148 177 -187 81 -49 153 -65 268 -60 81 4 107 10 163 36 57 27
176 122 176 141 0 4 -25 21 -55 39 l-56 34 -36 -33 c-21 -17 -62 -44 -93 -58
-46 -22 -69 -26 -140 -26 -101 1 -159 26 -226 97 -71 74 -88 118 -88 228 0 83
3 101 26 145 45 86 124 152 207 175 l41 11 0 64 c0 72 1 71 -73 54z"/>
<path d="M690 1036 l0 -65 41 -11 c83 -23 168 -95 210 -178 18 -37 23 -64 23
-127 1 -44 -2 -92 -6 -107 -7 -24 -3 -29 48 -58 34 -19 60 -28 65 -23 5 5 16
46 25 91 14 73 14 91 0 161 -18 100 -51 163 -122 240 -61 67 -164 125 -241
136 l-43 7 0 -66z"/>
</g>
</svg>
