<?xml version="1.0" encoding="utf-8"?>
<!-- Svg Vector Icons : http://www.onlinewebfonts.com/icon -->
<!DOCTYPE svg PUBLIC "-//W3C//DTD SVG 1.1//EN" "http://www.w3.org/Graphics/SVG/1.1/DTD/svg11.dtd">
<svg version="1.1" xmlns="http://www.w3.org/2000/svg" xmlns:xlink="http://www.w3.org/1999/xlink" x="0px" y="0px" viewBox="0 0 1000 1000" enable-background="new 0 0 1000 1000" xml:space="preserve">
<metadata> Svg Vector Icons : http://www.onlinewebfonts.com/icon </metadata>
<g><g><path d="M680.3,577.4c21,0,39.1-7.3,54.4-21.8s23-33.1,23-55.7s-7.7-41.1-23-55.7s-33.5-21.8-54.4-21.8s-39.1,7.3-54.4,21.8s-23,33.1-23,55.7s7.7,41.1,23,55.7S659.3,577.4,680.3,577.4z M474.6,705.7V294.3H990v411.4H474.6z M939.2,809.7v50.8c0,27.4-10.5,51.6-31.5,72.6s-45.2,31.5-72.6,31.5H114c-29,0-53.6-10.5-73.8-31.5C20.1,912.2,10,888,10,860.5V139.5c0-27.4,10.1-51.6,30.2-72.6C60.4,45.9,85,35.4,114,35.4h721.1c27.4,0,51.6,10.5,72.6,31.5s31.5,45.2,31.5,72.6v50.8H474.6c-29,0-53.6,10.5-73.8,31.5c-20.2,21-30.2,45.2-30.2,72.6v411.4c0,27.4,10.1,51.6,30.2,72.6s44.8,31.5,73.8,31.5H939.2z"/></g></g>
</svg>